<?xml version="1.0" standalone="no"?>
<!DOCTYPE svg PUBLIC "-//W3C//DTD SVG 20010904//EN"
 "http://www.w3.org/TR/2001/REC-SVG-20010904/DTD/svg10.dtd">
<svg version="1.0" xmlns="http://www.w3.org/2000/svg"
 width="512.000000pt" height="512.000000pt" viewBox="0 0 512.000000 512.000000"
 preserveAspectRatio="xMidYMid meet">
<metadata>
Created by potrace 1.14, written by Peter Selinger 2001-2017
</metadata>
<g transform="translate(0.000000,512.000000) scale(0.100000,-0.100000)"
fill="#000000" stroke="none">
<path d="M2315 4470 c-837 -117 -1484 -740 -1634 -1573 -25 -136 -33 -374 -18
-517 38 -355 176 -703 387 -974 94 -121 236 -262 350 -349 41 -31 80 -61 85
-65 23 -18 218 -132 227 -132 5 0 19 -6 31 -14 49 -33 304 -122 397 -140 212
-41 269 -47 422 -48 143 0 243 10 386 38 546 108 1017 452 1298 949 87 152
182 418 209 583 3 17 7 44 9 60 47 286 16 618 -86 917 -34 99 -122 289 -162
348 -14 21 -26 40 -26 43 0 3 -8 16 -17 29 -10 12 -25 33 -33 45 -44 67 -146
186 -229 268 -276 273 -607 443 -1011 522 -151 29 -417 33 -585 10z"/>
</g>
</svg>
